<?xml version="1.0" encoding="UTF-8"?>
<svg id="Capa_2" data-name="Capa 2" xmlns="http://www.w3.org/2000/svg" viewBox="0 0 96 96">
  <defs>
    <style>
      .cls-1 {
        fill: #7779ba;
      }

      .cls-1, .cls-2 {
        stroke-width: 0px;
      }

      .cls-2 {
        fill: none;
      }
    </style>
  </defs>
  <g id="Capa_2-2" data-name="Capa 2">
    <g>
      <g>
        <path class="cls-1" d="M67.54,29.12c.72-.03,1.64.03,2.54.13,1.4.16,2.77.43,4.12.83,1.31.4,2.58.9,3.8,1.52,1.56.8,3.02,1.76,4.37,2.88.17.14.34.3.52.43.12.08.13.17.1.3-.22.9-.53,1.77-.9,2.63-.69,1.59-1.58,3.07-2.63,4.44-.9,1.18-1.93,2.25-3.02,3.25-1.25,1.15-2.61,2.18-4.04,3.1-1.72,1.11-3.53,2.06-5.4,2.89-1.72.76-3.47,1.41-5.26,1.98-1.91.61-3.86,1.11-5.82,1.54-1.44.32-2.9.59-4.36.82-.89.14-1.77.28-2.66.39-.74.1-1.49.17-2.23.26-.11.01-.21.02-.32.04-.13.02-.17-.04-.16-.16.07-.55.05-1.11.03-1.66-.07-1.82-.33-3.61-.87-5.36-.5-1.6-1.21-3.1-2.15-4.49-.91-1.34-2.01-2.5-3.4-3.36-.28-.17-.56-.33-.86-.46-.13-.06-.14-.09-.02-.18.85-.65,1.72-1.27,2.6-1.88,1.54-1.07,3.1-2.09,4.71-3.04.93-.55,1.88-1.08,2.83-1.59,1.86-.99,3.77-1.88,5.73-2.64,2.08-.81,4.21-1.48,6.4-1.93.92-.19,1.84-.35,2.78-.46.56-.06,1.13-.12,1.69-.16.56-.04,1.12-.04,1.88-.04ZM73.57,38.71c.02-.25-.01-.5-.06-.75-.19-.96-.63-1.78-1.39-2.41-.54-.46-1.17-.75-1.88-.76-.97-.02-1.74.39-2.29,1.19-.6.87-.75,1.84-.52,2.85.33,1.42,1.15,2.46,2.59,2.88.99.29,1.89.06,2.64-.66.66-.64.89-1.44.91-2.33ZM63.05,38.85c-.43,0-.78.12-1.05.36-1.16,1.01-.87,2.9.55,3.51.66.28,1.37.12,1.83-.37.52-.56.66-1.24.47-1.98-.23-.88-.99-1.55-1.8-1.52Z"/>
        <path class="cls-1" d="M44.59,55.45c.02.35-.06.74-.04,1.13,0,.12-.05.16-.17.17-.63.05-1.25.1-1.88.16-.28.02-.26.02-.24-.27.03-.55.04-1.1.02-1.66-.07-2.05-.52-4.01-1.26-5.92-.63-1.62-1.62-2.97-2.88-4.15-.65-.61-1.35-1.17-2.11-1.64-.15-.09-.16-.14,0-.25.32-.22.62-.46.92-.7.12-.1.24-.12.39-.07.89.29,1.67.76,2.39,1.35,1.22,1,2.13,2.23,2.89,3.6.89,1.62,1.43,3.35,1.72,5.17.13.77.21,1.54.22,2.32,0,.24.03.47.03.75Z"/>
        <path class="cls-1" d="M40.65,55.44c0,.53,0,.94-.04,1.35-.02.16-.05.25-.25.25-.57.02-1.13.06-1.7.11-.17.01-.23-.04-.21-.21.02-.19.03-.39.04-.59,0-.49-.04-.97-.07-1.46-.06-.79-.18-1.57-.38-2.34-.39-1.55-1.02-2.98-1.98-4.26-.81-1.07-1.8-1.94-2.95-2.63-.24-.14-.24-.14-.03-.31.39-.32.79-.64,1.18-.96.1-.09.18-.12.32-.03.76.47,1.48,1,2.15,1.6.69.61,1.31,1.29,1.84,2.04.43.62.74,1.29,1.01,1.98.45,1.14.76,2.31.93,3.52.1.68.16,1.36.14,1.92Z"/>
        <path class="cls-1" d="M35,50.55c-1.19-1.95-2.94-3.02-5.21-3.25-.49-.05-.99-.04-1.48,0-.61.06-1.21.16-1.78.36h0c-.84.22-1.64.55-2.4.98-.88.43-1.68.98-2.44,1.59-.42.3-.8.64-1.18.99-1.33,1.27-2.58,2.62-3.73,4.06-.26.32-.54.64-.75,1-.02.01-.03.02-.05.04-.79,1.08-1.5,2.2-2.05,3.43-.47,1.06-.81,2.16-.9,3.31-.07.9-.06,1.81.16,2.71.09.36.17.73.35,1.11.04-.12.07-.2.09-.29.23-.75.57-1.43,1.1-2.01.65-.71,1.47-1.14,2.39-1.37.63-.16,1.28-.22,1.92-.26.43-.01.85-.01,1.28,0,.97.04,1.93.11,2.9.17,1.06.06,2.12.13,3.19.08.37-.02.74-.01,1.11-.1.33-.01.65-.07.98-.14.66-.13,1.3-.3,1.91-.57.11-.05.23-.1.34-.15.69-.3,1.32-.68,1.9-1.17.13-.06.21-.19.32-.27.9-.71,1.58-1.62,2.15-2.6.58-1,.85-2.11.93-3.25.1-1.57-.22-3.05-1.04-4.4Z"/>
        <path class="cls-1" d="M45.57,58.59c-.36.4-.7.79-1.01,1.2-1.01,1.35-1.74,2.85-2.24,4.46-.11.37-.22.74-.35,1.1-.05.13-.07.33-.25.34-.18.01-.22-.18-.29-.3-.29-.54-.51-1.11-.73-1.67-.4-1.06-.96-2.05-1.51-3.03-.3-.54-.62-1.06-.94-1.59-.08-.13-.02-.15.09-.15.49,0,.98.02,1.46,0,.93-.05,1.86-.06,2.79-.15.47-.04.94-.06,1.42-.09.41-.03.82-.07,1.23-.11.09,0,.19,0,.32,0Z"/>
        <path class="cls-1" d="M38.48,39.81c-.32.22-.62.43-.92.63-1.77,1.22-3.52,2.47-5.21,3.8,0,0-.01,0-.02.01-.09.06-.16.22-.24.17-.1-.05-.06-.22-.07-.34-.04-.79-.13-1.57-.19-2.36-.09-1.17-.43-2.29-.64-3.44-.03-.15-.03-.3-.02-.44,0-.18.11-.25.29-.21.21.06.41.15.6.26.86.47,1.73.9,2.66,1.2.91.3,1.83.51,2.78.61.32.03.63.06.98.1Z"/>
      </g>
      <rect class="cls-2" width="96" height="96"/>
    </g>
  </g>
</svg>